<?xml version="1.0" encoding="utf-8"?>
<!-- Generator: Adobe Illustrator 23.0.2, SVG Export Plug-In . SVG Version: 6.00 Build 0)  -->
<svg version="1.1" id="Capa_1" xmlns="http://www.w3.org/2000/svg" xmlns:xlink="http://www.w3.org/1999/xlink" x="0px" y="0px"
	 viewBox="0 0 589.6 589.6" style="enable-background:new 0 0 589.6 589.6;" xml:space="preserve">
<style type="text/css">
	.st0{fill:#00D97E;}
</style>
<g>
	<g>
		<circle class="st0" cx="413" cy="106.8" r="45.6"/>
		<path class="st0" d="M115.6,329.2c-55,0-99.6,44.6-99.6,99.6s44.6,99.6,99.6,99.6s99.6-44.6,99.6-99.6S170.6,329.2,115.6,329.2z
			 M115.6,482.4c-29.6,0-53.7-24.1-53.7-53.7s24.1-53.7,53.7-53.7s53.7,24.1,53.7,53.7S145.2,482.4,115.6,482.4z"/>
		<path class="st0" d="M15.3,366.9c4.9,0,9.7-2.4,12.7-6.7c19.7-29.2,52.5-46.6,87.6-46.6c35.1,0,67.9,17.4,87.6,46.6
			c4.7,7,14.2,8.8,21.2,4.1c7-4.7,8.8-14.2,4.1-21.2c-25.4-37.6-67.6-60-112.9-60C70.3,283,28,305.4,2.6,343
			c-4.7,7-2.9,16.5,4.1,21.2C9.4,366,12.3,366.9,15.3,366.9z"/>
		<path class="st0" d="M474,329.2c-55,0-99.6,44.6-99.6,99.6s44.6,99.6,99.6,99.6s99.6-44.6,99.6-99.6S529,329.2,474,329.2z
			 M474,482.4c-29.6,0-53.7-24.1-53.7-53.7s24.1-53.7,53.7-53.7c29.6,0,53.7,24.1,53.7,53.7S503.6,482.4,474,482.4z"/>
		<path class="st0" d="M474,283c-45.3,0-87.6,22.5-113,60.1c-4.7,7-2.9,16.5,4.1,21.2c2.6,1.8,5.6,2.6,8.6,2.6
			c4.9,0,9.7-2.4,12.7-6.7c19.7-29.2,52.5-46.6,87.6-46.6c35.1,0,67.9,17.4,87.6,46.6c4.7,7,14.3,8.8,21.2,4.1
			c7-4.7,8.8-14.2,4.1-21.2C561.5,305.4,519.3,283,474,283z"/>
		<path class="st0" d="M414.4,262.1c2.5,2.7,7.3,3.7,10.7,2.2l89.1-38.9c10.9-5.2,15.5-18.3,10.3-29.2
			c-5.2-10.9-18.3-15.5-29.2-10.3l-58,28.8c-3.3,1.7-8.1,0.8-10.7-1.9L328.9,116c-2.6-2.7-6.8-2.8-9.5-0.2L183.7,252.2
			c-2.7,2.6-2.6,6.6,0.2,9.1c17.2,14.8,72.8,62.8,92,79.7c2.8,2.5,3.8,7.3,2.3,10.7l-46.5,102.7c-1.5,3.4-1,8.6,1.2,11.6l31,42.5
			c5.3,7.3,13.3,11.4,21.7,11.9c6.6,0.4,13.3-1.4,19.1-5.5c13-9.5,15.9-27.7,6.4-40.8l-10.9-15c-2.2-3-2.8-8.2-1.3-11.7l46.9-110.5
			c1.5-3.4,0.5-8.3-2.2-10.9c-11.1-10.7-38.4-37-51.7-49.4c-2.7-2.5-2.8-6.7-0.1-9.3l59-57.3c2.7-2.6,6.9-2.5,9.4,0.3L414.4,262.1z"
			/>
	</g>
</g>
</svg>
