<svg height="479pt" viewBox="-11 0 479 479.20835" width="479pt" xmlns="http://www.w3.org/2000/svg"><path d="m136.105469 168h16v16h-16zm0 0"/><path d="m330.503906 247.199219c3.199219-4 5.601563-9.597657 5.601563-15.199219v-128c0-13.601562-10.402344-24-24-24h-12l20-46.398438v-17.601562c0-8.800781-7.203125-16-16-16h-80c-8.800781 0-16 7.199219-16 16v17.601562l20 46.398438h-5.601563c-6.398437 0-12.800781 2.398438-16.800781 7.199219l-24.800781 24.800781h-180.796875v16h104v80h-104v16h196.796875l4 3.199219-36 36c-49.597656 49.601562-49.597656 129.601562 0 179.199219 24 24 56 36.800781 89.601562 36.800781h2.398438c70.402344.800781 127.203125-56 127.203125-125.597657 0-33.601562-13.601563-65.601562-36.800781-89.601562zm-106.398437-231.199219h80v14.398438l-21.601563 49.601562h-37.601562l-20.796875-49.601562zm-104 112h16v24h16v-24h24v80h-56zm72 80v-84.800781l24.796875-24.800781c1.601562-1.597657 3.203125-2.398438 5.601562-2.398438h17.601563c4.796875 0 8 3.199219 8 8v32c0 4.800781-3.203125 8-8 8-4.800781 0-8-3.199219-8-8v-16h-16v16c0 13.601562 10.398437 24 24 24 13.597656 0 24-10.398438 24-24v-32c0-2.398438-.800781-5.601562-1.601563-8h49.601563c4.796875 0 8 3.199219 8 8v16h-40v16h40v24h-40v16h40v24h-40v16h40v16c0 4.800781-3.203125 8-8 8h-68.800781l-40-32zm65.597656 256h-2.398437c-61.601563 0-111.199219-49.601562-111.199219-110.398438 0-29.601562 12-57.601562 32.796875-78.402343l37.601562-37.597657 23.199219 18.398438h74.402344c1.597656 0 3.199219 0 4-.800781l19.199219 19.199219c43.199218 43.203124 43.199218 113.601562 0 156.800781-20.800782 20.800781-48.800782 32.800781-77.601563 32.800781zm0 0"/><path d="m248.105469 356-68.800781 45.601562 9.597656 12.796876 75.203125-50.398438v-92h-16zm0 0"/><path d="m424.105469 256h16v16h-16zm0 0"/><path d="m408.105469 272h16v16h-16zm0 0"/><path d="m424.105469 288h16v16h-16zm0 0"/><path d="m440.105469 272h16v16h-16zm0 0"/><path d="m56.105469 424h16v16h-16zm0 0"/><path d="m40.105469 440h16v16h-16zm0 0"/><path d="m56.105469 456h16v16h-16zm0 0"/><path d="m72.105469 440h16v16h-16zm0 0"/><path d="m392.105469 120h16v16h-16zm0 0"/><path d="m376.105469 136h16v16h-16zm0 0"/><path d="m392.105469 152h16v16h-16zm0 0"/><path d="m408.105469 136h16v16h-16zm0 0"/><path d="m72.105469 296h16v16h-16zm0 0"/><path d="m56.105469 312h16v16h-16zm0 0"/><path d="m72.105469 328h16v16h-16zm0 0"/><path d="m88.105469 312h16v16h-16zm0 0"/></svg>