<?xml version="1.0" encoding="utf-8"?>
<!-- Generator: Adobe Illustrator 23.0.2, SVG Export Plug-In . SVG Version: 6.00 Build 0)  -->
<svg version="1.1" id="Layer_1" xmlns="http://www.w3.org/2000/svg" xmlns:xlink="http://www.w3.org/1999/xlink" x="0px" y="0px"
	 viewBox="0 0 936 936" style="enable-background:new 0 0 936 936;" xml:space="preserve">
<style type="text/css">
	.st0{fill:#EA5C31;}
</style>
<g id="surface1">
	<path class="st0" d="M608.4,199.1v-74.3c0-8.6-7-15.6-15.6-15.6h-62.4C530.4,48.9,481.5,0,421.2,0S312,48.9,312,109.2
		c0,43.1-34.9,78-78,78s-78-34.9-78-78V93.6h-31.2v15.6c0,60.3,48.9,109.2,109.2,109.2s109.2-48.9,109.2-109.2c0-43.1,34.9-78,78-78
		s78,34.9,78,78h-62.4c-8.6,0-15.6,7-15.6,15.6v74.3c-182.5,47.1-301.6,222.6-277.8,409.7C167.1,795.8,326.3,936,514.8,936
		s347.7-140.2,371.4-327.2C910,421.7,790.9,246.2,608.4,199.1z M514.8,904.8c-175,0-321.9-131.7-341.1-305.7
		c-19.1-173.9,95.7-334.4,266.5-372.5c7.1-1.6,12.2-7.9,12.2-15.2v-71h124.8v71c0,7.3,5.1,13.6,12.2,15.2
		C760.2,264.7,875,425.2,855.9,599.1C836.7,773.1,689.8,904.8,514.8,904.8z"/>
	<path class="st0" d="M124.8,0H156v46.8h-31.2V0z"/>
	<path class="st0" d="M46.8,78h46.8v31.2H46.8V78z"/>
	<path class="st0" d="M187.2,78H234v31.2h-46.8V78z"/>
	<path class="st0" d="M51.4,26.6l22-22l31.2,31.2l-22,22L51.4,26.6z"/>
	<path class="st0" d="M176.2,35.8l31.2-31.2l22.1,22.1l-31.2,31.2L176.2,35.8z"/>
	<path class="st0" d="M51.4,160.6l31.2-31.2l22.1,22.1l-31.2,31.2L51.4,160.6z"/>
	<path class="st0" d="M560.6,546H469c-25.8,0-46.8-21-46.8-46.8s21-46.8,46.8-46.8h139.4v-31.2h-78V390h-31.2v31.2H469
		c-43.1,0-78,34.9-78,78s34.9,78,78,78h91.5c25.8,0,46.8,21,46.8,46.8s-21,46.8-46.8,46.8H421.2V702h78v31.2h31.2V702h30.2
		c43.1,0,78-34.9,78-78C638.6,580.9,603.6,546,560.6,546z"/>
</g>
</svg>
