<?xml version="1.0" encoding="utf-8"?>
<!-- Generator: Adobe Illustrator 23.0.2, SVG Export Plug-In . SVG Version: 6.00 Build 0)  -->
<svg version="1.1" id="Layer_1" xmlns="http://www.w3.org/2000/svg" xmlns:xlink="http://www.w3.org/1999/xlink" x="0px" y="0px"
	 viewBox="0 0 464 156" style="enable-background:new 0 0 464 156;" xml:space="preserve">
<style type="text/css">
	.st0{fill:#E85C32;}
	.st1{fill:#F79920;}
	.st2{fill:#E95E35;}
	.st3{fill:#EA6037;}
	.st4{fill:#E95F36;}
	.st5{fill:#474847;}
	.st6{fill:#484948;}
	.st7{fill:#494A49;}
	.st8{fill:#4D4E4D;}
</style>
<g>
	<path class="st0" d="M103.8,146.8c-31.2,0-62.4,0-93.6,0c-4,0-4.1,0-4.1-4.1c0-2.1,0.1-4.2,0-6.3c-0.2-2.4,0.7-3.5,3.2-3.3
		c3.3,0.2,6.5-0.1,9.8,0.1c2,0.1,2.8-0.5,3.2-2.6c2.5-15.2,8.6-28.8,18.1-40.8c13.9-17.6,31.7-29.1,54.2-32.4
		c13-2,25.9-0.7,38.3,3.7c1.2,0.4,1.9,0.9,2.3,2.3c4.6,18.2,17.8,29.3,36.6,30.5c1.8,0.1,2.7,0.8,3.7,2.2c7,10.6,11.8,22,13.5,34.6
		c0.3,2,1.1,2.6,3,2.4c2.3-0.2,4.7,0,7.1,0c1.7,0,2.6,0.6,2.5,2.4c-0.1,3-0.1,6,0,9c0,1.8-0.9,2.4-2.5,2.4c-3.3,0-6.5,0-9.8,0
		C160.8,146.8,132.3,146.8,103.8,146.8z M108.1,72.4c0.7,0.9,1.6,1,2.4,1.3c22,10.1,38,25.9,46.7,48.7c0.9,2.4,0.5,6,2.6,7.1
		c2.1,1.1,5.3,0.2,8,0.4c2,0.1,2.2-0.5,1.7-2.3c-2.5-8-5.9-15.6-10.5-22.6c-9.8-15-22.4-26.3-40-31.4
		C115.5,72.7,111.9,71.7,108.1,72.4z"/>
	<path class="st1" d="M216.8,47.3c0,21.1-17,38.1-38.1,38c-21,0-38.1-17.2-38-38.2c0.1-20.8,17.2-37.9,38-37.9
		C199.8,9.2,216.8,26.2,216.8,47.3z M161.5,70.8c5-2.6,9.3-4.6,13.4-7.1c2.9-1.8,5.1-1.6,7.9,0.1c4.2,2.5,8.5,4.6,13.3,7.1
		c-0.9-5.3-1.5-10-2.6-14.7c-0.7-3.2-0.1-5.5,2.4-7.8c3.6-3.2,6.7-7,10.1-10.6c-4.9-0.7-9.8-1.5-14.7-2.1c-2.8-0.3-4.5-1.3-5.7-4
		c-2-4.6-4.4-9-6.9-14.1c-2.3,4.7-4.7,8.7-6.3,13c-1.4,3.7-3.7,5-7.4,5.3c-4.6,0.3-9.1,1.3-13.4,1.9c3.7,3.9,7.2,7.8,10.9,11.5
		c1.7,1.7,2.1,3.2,1.7,5.5C163.3,59.8,162.5,64.9,161.5,70.8z"/>
	<path class="st2" d="M396.7,120c0-7.8,0-15.6,0-23.4c0-1.4,0-2.4,1.9-2.4c12.4,0.2,24.8-0.4,37.2,0.3c8.3,0.5,12.2,3.8,12.9,12.1
		c0.9,9.6,1,19.2-0.2,28.8c-0.7,6.2-4,9.2-10.1,10.4c-2,0.4-4,0.5-5.9,0.5c-11.1,0-22.3,0-33.4,0c-1.9,0-2.5-0.5-2.4-2.4
		C396.8,136,396.7,128,396.7,120z M420.5,102.1C420.5,102.1,420.5,102.1,420.5,102.1c-4.6,0-9.2,0-13.9,0c-1.1,0-2.1-0.1-2.1,1.6
		c0.1,11.2,0,22.3,0,33.5c0,1.2,0.5,1.6,1.6,1.6c9.3-0.1,18.7,0.1,28-0.1c4.5-0.1,6.6-2.2,7-6.7c0.7-7.5,0.6-15,0.1-22.5
		c-0.3-5.2-2.4-7-7.7-7.1C429.2,102,424.8,102.1,420.5,102.1z"/>
	<path class="st3" d="M304.8,146.2c-4.9-0.1-9.8,0.5-14.6-0.4c-6-1.2-9.5-4.4-10.1-10.5c-1-9.9-1-19.9,0-29.8
		c0.7-6.6,4.4-10.2,11.2-10.8c9.1-0.8,18.3-0.8,27.4,0c6.9,0.6,10.6,4.2,11.3,11c1.1,9.4,1,18.8,0.1,28.2
		c-0.7,8.3-4.7,11.8-13.1,12.3C312.9,146.4,308.9,146.2,304.8,146.2z M287.5,120.2C287.5,120.2,287.5,120.2,287.5,120.2
		c0,4-0.1,8,0,12c0.2,4.3,1.7,6.1,5.9,6.3c7.7,0.5,15.4,0.4,23.1,0c4-0.2,5.7-2.1,6-6.1c0.6-8,0.6-15.9,0-23.9
		c-0.3-4.3-2.3-6.2-6.7-6.3c-7.3-0.2-14.7-0.2-22,0c-4.2,0.1-6.1,2-6.3,6.3C287.3,112.4,287.5,116.3,287.5,120.2z"/>
	<path class="st4" d="M338.2,120.2c-0.2-5-0.6-10,0.3-14.9c1.2-6.7,4.5-10,11.2-10.6c9.1-0.8,18.3-0.8,27.4,0
		c6.7,0.6,10.1,3.9,11.2,10.5c1,6,0.4,12.1,0.5,18.2c0.1,4.3,0.3,8.5-0.6,12.7c-1.2,5.6-4.1,8.5-9.7,9.6c-4.9,1-9.8,0.5-14.7,0.5
		c-4.7,0-9.4,0.4-14.1-0.3c-7.6-1.2-11-4.7-11.5-12.4C338,129.1,338.2,124.7,338.2,120.2z M345.8,120.4
		C345.8,120.4,345.8,120.4,345.8,120.4c0,3.9-0.1,7.8,0.1,11.7c0.2,4.4,1.8,6.2,6.2,6.4c7.5,0.3,15,0.3,22.5,0
		c4.2-0.1,6-1.9,6.3-6.1c0.6-8,0.6-15.9,0-23.9c-0.3-4.5-2.4-6.3-6.9-6.4c-7.1-0.1-14.1-0.2-21.2,0c-4.8,0.1-6.7,2-6.9,6.9
		C345.7,112.8,345.8,116.6,345.8,120.4z"/>
	<path class="st5" d="M364.2,47.5c-3,4.5-6,9-9.1,13.5c-3,4.5-6,9.1-9.1,13.5c-2.8,4-6.7,4-9.5,0c-5.7-8.3-11.3-16.7-16.9-25
		c-0.5-0.7-0.8-1.6-1.7-2.1c-0.7,0.7-0.3,1.6-0.3,2.3c0,8.3-0.1,16.5,0,24.8c0,2-0.4,2.7-2.5,2.6c-4.8-0.1-4.8,0-4.8-4.9
		c0-11.2,0-22.3,0-33.5c0-2.2,0-4.5,2.6-5.4c2.8-0.9,4.6,0.5,6.2,2.7C326,46,333,55.9,339.8,65.8c1.3,1.9,1.8,1.8,3.1,0
		c6.6-9.7,13.2-19.3,19.9-28.9c0.5-0.7,1-1.5,1.6-2.2c1.3-1.4,2.9-1.9,4.7-1.3c1.9,0.6,2.7,2,2.8,3.9c0,0.5,0,0.9,0,1.4
		c0,12,0,23.9,0,35.9c0,2-0.4,2.7-2.5,2.6c-4.8-0.1-4.8,0-4.8-4.7c0-8.2,0-16.5,0-24.7C364.6,47.7,364.4,47.6,364.2,47.5z"/>
	<path class="st4" d="M226.6,125.4c0.3-5.6-0.5-12.4,0.4-19.2c1-7.6,4.6-11.2,12.2-11.7c11-0.8,22.1-0.2,33.2-0.3
		c1.3,0,1.7,0.4,1.8,1.7c0.4,6.1,0.5,6.1-5.6,6.1c-8.3,0-16.7,0-25,0c-6.3,0-8.7,2.3-9.1,8.6c-0.5,7.3-0.5,7.3,6.7,7.3
		c7.1,0,14.1,0,21.2,0c1.6,0,2.2,0.4,2.2,2.1c0.1,5.6,0.1,5.6-5.5,5.6c-7.1,0-14.1,0-21.2,0c-3.4,0-3.4,0-3.4,3.6c0,5-0.1,10,0,15
		c0,1.6-0.4,2.2-2.1,2.2c-5.8,0.1-5.8,0.1-5.8-5.6C226.6,136.1,226.6,131.4,226.6,125.4z"/>
	<path class="st6" d="M448.5,76.9c-0.5,0.1-0.5,0.2-0.6,0.2c-7.2,0.3-7.6,0.5-10.7-6.1c-2.3-4.8-5.3-6.7-10.6-6.2
		c-5.7,0.6-11.4,0.2-17.1,0.1c-1.8,0-2.8,0.4-3.6,2.1c-1.4,2.8-3,5.4-4.5,8.1c-0.7,1.5-1.6,2.2-3.4,2c-2-0.2-3.9,0-5.9,0
		c-0.3-1.1,0.5-1.7,0.9-2.4c7.5-12.6,15.1-25.2,22.6-37.8c3.1-5.1,6.7-5.1,9.8,0.1c7.3,12.5,14.7,25,22,37.6
		C447.7,75.3,448,76,448.5,76.9z M420.1,42.7c-2.8,4.7-5.4,9.1-8.1,13.5c-0.6,1.1-0.3,1.4,0.9,1.4c5.3,0,10.6,0,16.4,0
		C426,52.5,423.1,47.7,420.1,42.7z"/>
	<path class="st5" d="M257.6,50.4c0-5.1,0-10.2,0-15.2c0-1.5,0.4-2,2-2c5.4-0.1,5.4-0.2,5.4,5.1c0,8.2,0,16.3,0,24.5
		c0,3.9,1.3,5.8,5.2,6.3c6.8,0.9,13.6,0.9,20.3,0c4-0.5,5.3-2.3,5.3-6.5c0-8.9,0.1-17.8,0-26.6c0-2.1,0.4-2.8,2.7-2.8
		c4.6,0.2,4.6,0,4.6,4.5c0,8.4,0,16.9,0,25.3c0,8.5-2.9,12.2-11.4,13.3c-7.9,1.1-15.9,1.1-23.8-0.1c-7.2-1.1-10.1-5-10.2-12.2
		C257.6,59.4,257.6,54.9,257.6,50.4z"/>
	<path class="st7" d="M251,47.1c-0.5,6.8,0.1,12.4-1,17.9c-1.4,7.3-5.6,11.8-12.9,13.3c-2.9,0.6-5.9,1.1-8.8,1.6
		c-1.3,0.2-1.7-0.2-1.8-1.5c-0.4-6.2-0.4-6.2,5.8-7.1c0.8-0.1,1.6-0.3,2.4-0.5c6.2-1.4,8.6-4.1,8.8-10.6c0.2-8.1,0.3-16.1,0.2-24.2
		c0-2.3,0.6-2.9,2.8-2.8c4.5,0.2,4.5,0,4.5,4.7C251,41.3,251,44.8,251,47.1z"/>
	<path class="st8" d="M379,54.8c0-6.4,0.1-12.9,0-19.3c0-1.8,0.4-2.5,2.4-2.5c5.1,0.1,5.1,0,5.1,4.9c0,12,0,24.1,0,36.1
		c0,2.1-0.5,2.8-2.7,2.7c-4.8-0.2-4.8,0-4.8-4.9C379,66.2,379,60.5,379,54.8z"/>
	<path class="st2" d="M115,41.8c0,5.2-4.1,9.2-9.3,9.2c-5.2,0-9.3-4.1-9.3-9.3c0-5,4.1-9.1,9.2-9.1C110.8,32.6,115,36.7,115,41.8z"
		/>
</g>
</svg>
