<svg xmlns="http://www.w3.org/2000/svg" width="108" height="108" viewBox="0 0 108 108">
    <g fill="none" fill-rule="nonzero">
        <path fill="#CFE7EA" d="M97.108 64.017l-4.93 3.795-13.086 10.033H63.534l-6.543-4.362 6.543-8.724h2.327c8.418 0 15.412-6.85 15.412-15.268 0-6.02 4.886-10.905 10.906-10.905l1.526.654c6.543 6.544 7.939 16.707 3.403 24.777z"/>
        <path fill="#BFDFE3" d="M97.108 64.017l-4.93 3.795V38.586l1.527.654c6.543 6.544 7.939 16.707 3.403 24.777z"/>
        <path fill="#5A5A5A" d="M103.084 75.664c0 6.02-4.886 10.905-10.905 10.905-6.02 0-10.906-4.886-10.906-10.905 0-6.02 4.886-10.905 10.906-10.905 6.019 0 10.905 4.885 10.905 10.905z"/>
        <path fill="#444" d="M103.084 75.664c0 6.02-4.886 10.905-10.905 10.905v-21.81c6.019 0 10.905 4.885 10.905 10.905z"/>
        <path fill="#FEE084" d="M98.722 75.664a6.534 6.534 0 0 1-6.543 6.543 6.534 6.534 0 0 1-6.543-6.543 6.534 6.534 0 0 1 6.543-6.543 6.534 6.534 0 0 1 6.543 6.543z"/>
        <path fill="#FCB309" d="M98.722 75.664a6.534 6.534 0 0 1-6.543 6.543V69.12a6.534 6.534 0 0 1 6.543 6.543z"/>
        <path fill="#5A5A5A" d="M72.55 34.224h10.904v4.362H72.55z"/>
        <path fill="#ED7B35" d="M54.81 25.5v17.448l-8.724 4.362-2.18-.741L33 42.949V25.5h8.724l2.181 2.181 2.181-2.181z"/>
        <path fill="#EA5B31" d="M54.81 25.5v17.448l-8.724 4.362-2.18-.741V27.68l2.18-2.181z"/>
        <path fill="#5A5A5A" d="M59.172 75.664c0 6.023-4.882 10.905-10.905 10.905s-10.905-4.882-10.905-10.905 4.882-10.905 10.905-10.905 10.905 4.882 10.905 10.905z"/>
        <path fill="#FEE084" d="M54.81 75.664a6.543 6.543 0 1 1-13.086 0 6.543 6.543 0 0 1 13.086 0z"/>
        <path fill="#BFDFE3" d="M87.817 29.862a6.534 6.534 0 0 0-6.544 6.543 6.534 6.534 0 0 0 6.544 6.543h10.905V29.862H87.817z"/>
        <path fill="#FEE084" d="M41.724 25.5h4.362v4.362h-4.362z"/>
        <path fill="#FCB309" d="M43.905 25.5h2.181v4.362h-2.18z"/>
        <path fill="#BFDFE3" d="M63.534 77.845H33V62.578c0-8.432 6.836-15.268 15.267-15.268 8.432 0 15.267 6.836 15.267 15.268v15.267z"/>
        <path fill="#5A5A5A" d="M59.172 51.672H39.543A6.543 6.543 0 0 1 33 45.13v-2.18h26.172a4.362 4.362 0 1 1 0 8.723z"/>
        <path fill="#BFDFE3" d="M92.179 29.862h6.543v13.086h-6.543z"/>
        <path fill="#CFE7EA" d="M92.179 60.396c-8.419 0-15.268 6.85-15.268 15.268v2.18h30.535v-2.18c0-8.419-6.849-15.268-15.267-15.268z"/>
        <path fill="#BFDFE3" d="M107.446 75.664v2.18H92.179V60.397c8.418 0 15.267 6.85 15.267 15.268z"/>
        <path fill="#ED7B35" d="M13.738 68.045h14.604v2.68H13.738z"/>
        <path fill="#EA5B31" d="M3.582 74.417h24.759v2.68H3.582z"/>
        <path fill="#ED7B35" d="M10.501 80.637h17.841v2.68H10.501z"/>
    </g>
</svg>
