<?xml version="1.0" encoding="utf-8"?>
<!-- Generator: Adobe Illustrator 23.0.2, SVG Export Plug-In . SVG Version: 6.00 Build 0)  -->
<svg version="1.1" id="Layer_1" xmlns="http://www.w3.org/2000/svg" xmlns:xlink="http://www.w3.org/1999/xlink" x="0px" y="0px"
	 viewBox="0 0 512 512" style="enable-background:new 0 0 512 512;" xml:space="preserve">
<style type="text/css">
	.st0{fill:#F6C341;}
</style>
<g>
	<path class="st0" d="M255.6,512C113.2,511.8-0.7,396.9,0,253.4C0.7,113.2,116.1-1.3,258.5,0c139.6,1.3,256,116.1,253.4,260.9
		C509.3,400.1,395.4,512.3,255.6,512z M492,256.3c-0.3-129-103.3-234.7-234-236.4c-129.8-1.7-237,103.9-238.3,234.4
		c-1.3,129.3,103.8,236.3,233.7,237.8C384,493.7,490.6,388.4,492,256.3z"/>
	<path class="st0" d="M157.3,256c-21.5,0-39.3-17.5-39.5-39c-0.2-21.8,17.8-39.8,39.9-39.8c21.7,0,39.4,17.8,39.3,39.7
		C196.9,238.7,179.3,256,157.3,256z"/>
	<path class="st0" d="M355,177.3c21.9,0.5,39.5,18.7,38.9,40.1c-0.6,22.2-18.8,39.1-41.5,38.6c-21.1-0.5-38.1-18.8-37.6-40.7
		C315.2,194,333.4,176.8,355,177.3z"/>
	<path class="st0" d="M157.7,374.1c0-6.5,0-12.8,0-19.5c65.3,0,130.5,0,196.3,0c0,6.4,0,12.8,0,19.5
		C288.5,374.1,223.3,374.1,157.7,374.1z"/>
</g>
</svg>
