<?xml version="1.0" encoding="utf-8"?>
<!-- Generator: Adobe Illustrator 23.0.2, SVG Export Plug-In . SVG Version: 6.00 Build 0)  -->
<svg version="1.1" id="Layer_1" xmlns="http://www.w3.org/2000/svg" xmlns:xlink="http://www.w3.org/1999/xlink" x="0px" y="0px"
	 viewBox="0 0 512 512" style="enable-background:new 0 0 512 512;" xml:space="preserve">
<style type="text/css">
	.st0{fill:#38AFD2;}
</style>
<g>
	<path class="st0" d="M255.8,509C115.8,508.8,3.9,396,4.6,255C5.3,117.2,118.6,4.8,258.5,6c137.2,1.2,251.5,114,249,256.3
		C505,399,393.1,509.3,255.8,509z M255.7,489.5c129.5-0.8,233.2-105.1,232.3-233.8C487.1,128.5,382.1,24.8,254.9,25.5
		C127.1,26.3,23.4,130.9,24,258.5C24.6,385.7,129.4,490.2,255.7,489.5z"/>
	<path class="st0" d="M132.1,349.6c5.4-3.6,10.4-6.9,15.6-10.4c27.9,34.4,63.4,53.3,108.1,53.3c44.8,0,80.2-19.2,108.4-53.4
		c5.2,3.5,10.3,6.9,16.2,10.9c-31,39.4-70.9,60.7-120.6,62.3C203,414.2,155.3,383.7,132.1,349.6z"/>
	<path class="st0" d="M159.3,257.5c-21.4,0-39.1-17.5-39-38.6c0.2-21.4,17.4-38.6,39-38.8c21.3-0.2,38.8,17.3,38.8,38.8
		C198.1,240.4,180.9,257.5,159.3,257.5z"/>
	<path class="st0" d="M353.5,180.1c21.5,0.6,38.8,18.5,38.2,39.5c-0.7,22.1-18.7,38.5-41.5,37.8c-20.3-0.6-36.8-18.8-36.3-40
		C314.3,196.5,332.3,179.6,353.5,180.1z"/>
</g>
</svg>
