<?xml version="1.0" encoding="utf-8"?>
<!-- Generator: Adobe Illustrator 23.0.2, SVG Export Plug-In . SVG Version: 6.00 Build 0)  -->
<svg version="1.1" id="Layer_1" xmlns="http://www.w3.org/2000/svg" xmlns:xlink="http://www.w3.org/1999/xlink" x="0px" y="0px"
	 viewBox="0 0 512 512" style="enable-background:new 0 0 512 512;" xml:space="preserve">
<style type="text/css">
	.st0{fill:#E63858;}
</style>
<g>
	<path class="st0" d="M255.2,509.6C114.1,509.3,1.3,395.7,2,253.5C2.7,114.6,117,1.2,257.9,2.5c138.3,1.2,253.5,114.9,251,258.4
		C506.5,398.6,393.7,509.8,255.2,509.6z M255.1,489.9c130.5-0.8,235.1-106,234.2-235.7C488.5,126,382.6,21.4,254.3,22.1
		C125.5,22.9,21,128.3,21.5,257C22.1,385.2,127.8,490.6,255.1,489.9z"/>
	<path class="st0" d="M380.9,396.6c-6,4-11.1,7.5-16.3,11c-54.7-71.5-161.9-72.2-218.3,0c-5.1-3.4-10.3-6.8-16.3-10.9
		c30.4-38.8,69.5-60.7,118.5-62.7C302.9,331.9,346.7,353.7,380.9,396.6z"/>
	<path class="st0" d="M157.6,256c-21.3,0-38.9-17.6-38.9-38.8c-0.1-21.7,17.8-39.4,39.7-39.3c21.5,0.1,38.9,17.7,38.8,39.4
		C197,239,179.5,256.1,157.6,256z"/>
	<path class="st0" d="M352.7,178c21.6-0.1,39.1,17.1,39.5,38.8c0.4,20.7-17.4,39.1-37.9,39.2c-22.7,0.2-40.4-16.8-40.5-38.8
		C313.7,195.6,331,178.1,352.7,178z"/>
</g>
</svg>
