<?xml version="1.0" encoding="utf-8"?>
<!-- Generator: Adobe Illustrator 23.0.2, SVG Export Plug-In . SVG Version: 6.00 Build 0)  -->
<svg version="1.1" id="Layer_1" xmlns="http://www.w3.org/2000/svg" xmlns:xlink="http://www.w3.org/1999/xlink" x="0px" y="0px"
	 viewBox="0 0 512 512" style="enable-background:new 0 0 512 512;" xml:space="preserve">
<style type="text/css">
	.st0{fill:#E63858;}
</style>
<g>
	<path class="st0" d="M50.3,105.1c-5.6-4.1-10.8-8-16-11.8c-5.2-3.9-10.4-7.8-15.7-11.8c4-5.5,7.8-10.5,11.8-15.9
		c10.9,8,21.5,15.8,32.2,23.6c52.1-57,116-87.9,193.3-87.9c77.3,0,141.2,30.8,193.4,88c5.4-4,10.7-7.9,16.1-11.9
		c5.2-3.9,10.5-7.7,16.1-11.8c3.9,5.2,7.7,10.3,11.9,15.9c-10.5,7.8-20.9,15.5-31.6,23.5c45.7,64.9,61,135.9,42.6,213
		c-14.1,59-46.3,107-94.8,143.5c-96.6,72.6-229.3,68-320.9-11c-32.8-28.2-56.9-62.7-72.1-103.2c-15.3-40.6-20-82.6-14-125.6
		C8.5,179,24.7,140.3,50.3,105.1z M197.4,213.6c-1.6,24.9-14.2,40.4-34.1,43.2c-18.8,2.6-37-8.6-43.1-26.4c-3-8.8-2.9-17.7,0.4-26.5
		c5-13.3,15.1-21.1,29.4-25.4c-28.3-20.9-55.8-41.1-83.2-61.3c-67.8,88.6-65,226,29.5,313.1c94.7,87.4,241.4,82.6,329.9-10.3
		c88.2-92.6,80.3-225,18.7-302.7c-27.4,20.2-54.7,40.4-82.4,60.9c25.4,11.6,35.4,28,30.3,48.7c-4.6,18.6-21,30.6-41.1,30
		c-20.3-0.6-32.9-14.8-37.6-43c-9,6.6-17.7,13-26.7,19.7c-4.1-5.5-7.9-10.6-11.9-16c52.7-38.9,105-77.4,157.3-116
		C328.1-16,157.2,5.4,79.8,102c26.1,19.3,52.2,38.5,78.3,57.8c26,19.2,52.1,38.4,78.4,57.9c-4.2,5.6-8,10.7-11.9,16
		C215.4,226.8,206.8,220.5,197.4,213.6z"/>
	<path class="st0" d="M382.7,398.8c-6.2,4.2-11.2,7.6-16.6,11.2c-28.3-35.1-64.6-54.3-109.9-54.3c-45.4,0-81.6,19.4-110.3,54.3
		c-4.4-2.9-8.6-5.8-12.9-8.7c-0.9-0.6-1.8-1.4-3.4-2.6c31.2-39.5,71.2-61.6,121.4-63C305.1,334.1,348.4,356.2,382.7,398.8z"/>
</g>
</svg>
